# xmcd
#
# Track frame offsets: 
#        150
#        17238
#        31412
#        46261
#        58238
#        77724
#        94691
#        105934
#        120600
#        137201
#        161594
#        176247
#        206002
#        222187
#        240069
#        255020
#        273432
#        274283
#        303701
#        322324
#
# Disc length: 4519 seconds
#
# Revision: 0
# Processed by: cddbd v1.5.2PL0 Copyright (c) Steve Scherf et al.
# Submitted via: ExactAudioCopy v0.95b4
#
DISCID=1c11a514
DTITLE=С.С.Волгин - Агент Сжатия
DYEAR=2004
DGENRE=Blues
TTITLE0=У кого что
TTITLE1=Боже, помилуй корову
TTITLE2=Кубы одиночества
TTITLE3=Урчащее пузо блюз
TTITLE4=Вой, муха
TTITLE5=Зомби в универмаге
TTITLE6=Два японца
TTITLE7=Жидкая баба
TTITLE8=Гадость такая
TTITLE9=Андижан
TTITLE10=Улетающие люди летят
TTITLE11=Паук
TTITLE12=Свин
TTITLE13=Последний тралик
TTITLE14=Хризантемы
TTITLE15=Дребедень
TTITLE16=Гёггънгл
TTITLE17=Два Паравоза
TTITLE18=Не убит и не пьян
TTITLE19=Терновый Куст
EXTD=
EXTT0=
EXTT1=
EXTT2=
EXTT3=
EXTT4=
EXTT5=
EXTT6=
EXTT7=
EXTT8=
EXTT9=
EXTT10=
EXTT11=
EXTT12=
EXTT13=
EXTT14=
EXTT15=
EXTT16=
EXTT17=
EXTT18=
EXTT19=
PLAYORDER=
